<?xml version="1.0" encoding="UTF-8" standalone="no"?>
<!DOCTYPE svg PUBLIC "-//W3C//DTD SVG 1.1//EN" "http://www.w3.org/Graphics/SVG/1.1/DTD/svg11.dtd">
<svg width="100%" height="100%" viewBox="0 0 500 250" version="1.1" xmlns="http://www.w3.org/2000/svg" xmlns:xlink="http://www.w3.org/1999/xlink" xml:space="preserve" style="fill-rule:evenodd;clip-rule:evenodd;stroke-linecap:round;stroke-linejoin:round;stroke-miterlimit:1.5;">
    <g transform="matrix(1,0,0,1,0,-125)">
        <path d="M120.709,149.678C163.945,149.678 199.048,184.78 199.048,228.017C199.048,271.253 163.945,306.355 120.709,306.355C77.472,306.355 42.37,271.253 42.37,228.017C42.37,184.78 77.472,149.678 120.709,149.678ZM126.533,268.171C132.954,268.171 138.166,273.384 138.166,279.804C138.166,286.225 132.954,291.437 126.533,291.437C120.113,291.437 114.9,286.225 114.9,279.804C114.9,273.384 120.113,268.171 126.533,268.171ZM88.811,251.566C96.5,251.566 102.743,257.809 102.743,265.498C102.743,273.188 96.5,279.431 88.811,279.431C81.121,279.431 74.878,273.188 74.878,265.498C74.878,257.809 81.121,251.566 88.811,251.566ZM136.501,165.954C157.067,165.954 173.764,182.651 173.764,203.217C173.764,223.783 157.067,240.48 136.501,240.48C115.935,240.48 99.238,223.783 99.238,203.217C99.238,182.651 115.935,165.954 136.501,165.954Z"/>
    </g>
    <g transform="matrix(1,0,0,1,262.358,-125)">
        <path d="M120.709,149.678C163.945,149.678 199.048,184.78 199.048,228.017C199.048,271.253 163.945,306.355 120.709,306.355C77.472,306.355 42.37,271.253 42.37,228.017C42.37,184.78 77.472,149.678 120.709,149.678ZM126.533,268.171C132.954,268.171 138.166,273.384 138.166,279.804C138.166,286.225 132.954,291.437 126.533,291.437C120.113,291.437 114.9,286.225 114.9,279.804C114.9,273.384 120.113,268.171 126.533,268.171ZM88.811,251.566C96.5,251.566 102.743,257.809 102.743,265.498C102.743,273.188 96.5,279.431 88.811,279.431C81.121,279.431 74.878,273.188 74.878,265.498C74.878,257.809 81.121,251.566 88.811,251.566ZM136.501,165.954C157.067,165.954 173.764,182.651 173.764,203.217C173.764,223.783 157.067,240.48 136.501,240.48C115.935,240.48 99.238,223.783 99.238,203.217C99.238,182.651 115.935,165.954 136.501,165.954Z"/>
    </g>
    <g transform="matrix(1,0,0,1,0,-125)">
        <path d="M199.048,319.317C185.749,354.547 238.989,361.333 250,322.648C257.202,356.079 312.669,368.152 308.145,319.524" style="fill:none;stroke:black;stroke-width:14.58px;"/>
    </g>
</svg>
